<?xml version="1.0" standalone="no"?>
<!DOCTYPE svg PUBLIC "-//W3C//DTD SVG 20010904//EN"
 "http://www.w3.org/TR/2001/REC-SVG-20010904/DTD/svg10.dtd">
<svg version="1.0" xmlns="http://www.w3.org/2000/svg"
 width="323.000000pt" height="323.000000pt" viewBox="0 0 323.000000 323.000000"
 preserveAspectRatio="xMidYMid meet">
<metadata>
Created by potrace 1.11, written by Peter Selinger 2001-2013
</metadata>
<g transform="translate(0.000000,323.000000) scale(0.100000,-0.100000)"
fill="#000000" stroke="none">
<path d="M1383 2619 c-33 -12 -40 -35 -48 -159 -4 -63 -8 -131 -10 -150 -2
-19 -7 -73 -10 -120 -4 -47 -8 -101 -10 -120 -2 -19 -6 -78 -10 -130 -6 -94
-8 -119 -21 -275 -8 -98 -9 -103 -16 -110 -6 -7 -31 -11 -108 -19 -130 -14
-166 -18 -190 -22 -14 -2 -80 -7 -147 -10 l-122 -7 4 84 c2 46 6 149 10 229 3
80 9 188 12 240 16 251 -3 310 -81 249 l-26 -20 0 -357 c-1 -196 -2 -374 -3
-395 l-2 -38 -159 3 c-145 2 -159 1 -172 -17 -17 -23 -8 -64 20 -89 19 -17 33
-18 141 -13 66 3 128 9 139 13 18 7 18 2 12 -112 -9 -178 -17 -287 -22 -302
-2 -8 -6 -57 -9 -110 -6 -107 4 -145 43 -150 29 -4 76 42 67 66 -6 17 -7 164
0 272 11 200 18 317 17 333 -1 13 7 17 31 18 18 0 39 2 47 3 8 2 56 6 105 10
50 4 104 9 120 11 32 5 86 11 199 21 l68 7 -6 -99 c-15 -226 -26 -315 -46
-362 -17 -38 -18 -46 -5 -90 18 -60 41 -83 72 -71 37 14 45 42 58 219 2 36 7
103 10 150 4 47 8 96 10 108 2 13 5 55 6 93 2 67 3 69 28 70 52 1 112 8 122
14 6 5 7 -10 2 -42 -10 -60 -10 -326 -1 -373 39 -196 159 -285 363 -272 249
16 451 224 702 722 l82 165 -5 -220 c-10 -385 -10 -649 -2 -676 16 -49 99 -76
132 -43 14 14 14 18 1 38 -32 48 -35 94 -34 436 1 498 4 572 17 597 14 26 15
53 2 73 -16 25 -84 14 -393 -65 -405 -103 -427 -111 -427 -160 0 -31 26 -50
63 -47 18 1 120 31 227 67 107 35 237 76 287 89 l93 24 -15 -36 c-31 -74 -201
-393 -236 -444 -11 -14 -19 -29 -19 -33 0 -13 -104 -148 -160 -209 -61 -65
-142 -123 -210 -151 -53 -21 -176 -29 -222 -13 -117 39 -169 158 -163 372 14
504 434 1106 789 1133 86 7 91 2 110 -88 14 -69 30 -85 46 -44 26 68 2 170
-47 202 -35 23 -158 12 -253 -22 -243 -88 -505 -372 -630 -685 -12 -30 -26
-64 -31 -75 -4 -11 -16 -46 -25 -78 -12 -43 -19 -56 -27 -48 -15 15 -52 14
-108 -3 l-47 -14 3 31 c2 18 6 73 9 122 4 50 8 104 10 120 2 17 7 75 11 130 4
55 8 118 10 140 2 22 9 94 15 160 6 66 13 147 17 180 6 59 7 98 4 142 -1 28
-29 43 -58 32z"/>
</g>
</svg>
